<?xml version="1.0" encoding="utf-8"?>
<!-- Generator: Adobe Illustrator 23.0.1, SVG Export Plug-In . SVG Version: 6.00 Build 0)  -->
<svg version="1.1" id="Layer_1" xmlns="http://www.w3.org/2000/svg" xmlns:xlink="http://www.w3.org/1999/xlink" x="0px" y="0px"
	 viewBox="0 0 1920 1080" style="enable-background:new 0 0 1920 1080;" xml:space="preserve">
<style type="text/css">
	.st0{fill:#FFFFFF;}
</style>
<g>
	<path class="st0" d="M232.37,765.35h-81.42c-2.04,0-2.81-1.05-2.81-3.15c0-2.8,0.51-3.85,3.83-4.54
		c10.47-1.75,14.29-3.5,14.29-8.39c0-1.05-0.26-2.1-0.51-3.5l-15.31-54.19H85.86l-10.21,36.71c-1.02,3.5-1.53,6.64-1.53,9.44
		c0,9.79,6.38,15.73,23.23,20.28c2.04,0.7,2.81,1.4,2.81,4.2s-1.02,3.15-3.83,3.15H37.36c-3.06,0-3.83-0.35-3.83-3.15
		s0.51-3.5,2.81-4.2c14.04-4.9,20.93-14.68,25.27-30.42l61.51-221.66c1.53-5.24,3.32-7.34,7.66-7.34s6.13,2.1,7.66,7.69l73,235.3
		c2.81,9.09,10.47,14.68,20.93,16.43c2.04,0.35,2.55,1.05,2.55,3.5C234.92,764.3,234.41,765.35,232.37,765.35z M117.77,575.86
		L89.69,676.55h56.67L117.77,575.86z"/>
	<path class="st0" d="M472.05,512.22c-10.72,4.2-20.16,16.78-23.23,31.82l-44.41,222.01c-0.77,4.2-5.87,5.59-9.7,5.59
		c-3.06,0-7.91-1.4-9.19-6.29l-43.65-198.59l-40.33,199.29c-0.77,4.2-5.87,5.59-9.7,5.59c-2.81,0-7.66-1.05-8.93-6.29l-56.92-240.54
		c-2.04-8.39-8.93-9.79-18.12-12.59c-1.53-0.35-2.04-1.4-2.04-3.5c0-2.8,0.51-3.85,2.3-3.85h74.28c2.04,0,2.55,1.05,2.55,3.15
		c0,2.8-0.26,3.5-2.81,4.2c-9.95,2.8-15.06,4.2-15.06,8.74c0,0.7,0,1.05,0.26,1.75l36.25,167.82l29.1-144.05
		c0.77-3.5,1.02-6.99,1.02-10.14c0-12.59-6.13-20.63-19.65-24.12c-1.53-0.35-2.04-1.4-2.04-3.5c0-2.8,0.51-3.85,2.3-3.85h70.96
		c1.79,0,2.55,1.05,2.55,3.15c0,2.8-0.26,3.5-2.81,4.2c-9.19,2.45-14.04,4.2-14.04,8.74c0,0.7,0,1.05,0.25,1.75l35.22,167.82
		l29.61-147.54c0.51-2.8,1.02-5.59,1.02-8.04c0-12.24-7.91-18.18-18.89-22.73c-2.3-1.05-3.06-1.75-3.06-4.2
		c0-2.8,0.77-3.15,3.32-3.15h53.6c2.3,0,2.81,0.7,2.81,3.15S474.09,511.52,472.05,512.22z"/>
	<path class="st0" d="M648.16,765.35h-81.42c-2.04,0-2.81-1.05-2.81-3.15c0-2.8,0.51-3.85,3.83-4.54
		c10.47-1.75,14.29-3.5,14.29-8.39c0-1.05-0.25-2.1-0.51-3.5l-15.31-54.19h-64.58l-10.21,36.71c-1.02,3.5-1.53,6.64-1.53,9.44
		c0,9.79,6.38,15.73,23.23,20.28c2.04,0.7,2.81,1.4,2.81,4.2s-1.02,3.15-3.83,3.15h-58.96c-3.06,0-3.83-0.35-3.83-3.15
		s0.51-3.5,2.81-4.2c14.04-4.9,20.93-14.68,25.27-30.42l61.52-221.66c1.53-5.24,3.32-7.34,7.66-7.34s6.13,2.1,7.66,7.69l73,235.3
		c2.81,9.09,10.47,14.68,20.93,16.43c2.04,0.35,2.55,1.05,2.55,3.5C650.71,764.3,650.2,765.35,648.16,765.35z M533.55,575.86
		l-28.08,100.69h56.67L533.55,575.86z"/>
	<path class="st0" d="M837.81,763.6c-7.66,1.75-15.31,2.45-24.5,2.45c-21.95,0-39.31-10.49-48.75-32.86
		c-10.47-25.17-22.21-59.79-30.37-86.01c-2.81-8.74-21.19-10.84-21.19-10.84v107.33c0,9.09,4.08,12.59,17.61,14.33
		c1.53,0.35,2.55,1.05,2.55,3.85s-0.77,3.5-2.81,3.5h-77.34c-2.3,0-2.81-0.7-2.81-3.5s1.02-3.5,2.55-3.85
		c14.29-2.1,18.38-4.9,18.38-14.33V526.91c0-9.79-4.08-12.59-18.63-14.68c-1.53-0.35-2.55-0.7-2.55-3.85c0-2.8,1.28-3.5,2.81-3.5
		c35.22,0,58.71-1.4,93.42-1.4c39.05,0,63.56,24.47,63.56,65.03c0,36.01-11.23,59.44-37.78,67.13c7.4,24.12,23.23,65.73,36.76,94.75
		c10.21,21.68,17.1,26.22,28.59,26.22c1.79,0,2.55,0.35,2.55,3.15S839.34,763.25,837.81,763.6z M734.17,516.42
		c-7.4,0-19.14,0.7-21.19,1.05v93.35c0,11.19,13.02,13.99,26.04,13.99c18.38,0,30.88-21.68,30.88-56.64
		C769.91,537.05,755.36,516.42,734.17,516.42z"/>
	<path class="st0" d="M931.22,765.35h-85.51c-2.04,0-2.81-0.7-2.81-3.5s1.02-3.5,2.55-3.85c14.55-2.1,18.63-4.9,18.63-14.33V526.91
		c0-9.79-4.08-12.59-18.63-14.68c-1.53-0.35-2.55-0.7-2.55-3.85s1.28-3.5,2.81-3.5c35.22,0,54.88-1.4,87.55-1.4
		c55.9,0,92.4,46.5,92.4,132.16C1025.66,722.35,989.16,765.35,931.22,765.35z M926.63,517.47c-7.66,0-20.68,1.4-20.68,1.4v218.52
		c0,9.44,9.19,14.33,22.21,14.33c21.19,0,52.84-14.33,52.84-107.33C980.99,563.27,954.19,517.47,926.63,517.47z"/>
	<path class="st0" d="M1121.63,771.64c-19.14,0-43.39-6.99-57.69-15.73c-3.06-1.4-4.34-3.5-4.59-6.29
		c-0.77-13.63-4.08-48.25-7.4-66.78c0-0.7-0.25-1.4-0.25-1.75c0-1.75,0.77-2.45,2.04-3.15c0.77-0.35,1.28-0.35,1.79-0.35
		c1.53,0,2.04,1.05,2.55,3.15c16.34,51.4,45.18,74.12,65.34,74.12c26.29,0,41.1-14.33,41.1-37.76c0-23.77-14.04-43-47.73-59.79
		c-43.65-21.33-63.81-44.4-63.81-86.71c0-42.65,24.5-72.02,70.45-72.02c13.02,0,30.88,5.59,39.31,7.69
		c1.02,0.35,2.55,0.35,3.83,0.35c3.32,0,7.15-0.7,9.7-1.4c1.28-0.35,2.3-0.7,3.06-0.7c1.79,0,2.3,1.4,2.55,4.89
		c1.02,16.78,4.08,49.3,6.38,66.43c0,0.7,0,1.4,0,1.75c0,1.05-0.25,1.75-1.28,2.1c-0.77,0.35-1.28,0.7-1.79,0.7
		c-1.53,0-2.04-1.4-2.55-3.5c-9.95-37.76-36.76-62.58-58.71-62.58c-28.84,0-41.61,13.98-41.61,34.61c0,22.03,13.27,36.36,51.3,52.44
		c42.88,17.83,66.62,47.2,66.62,93.35C1200.24,742.98,1174.46,771.64,1121.63,771.64z"/>
</g>
<g>
	<path class="st0" d="M51.37,234.47h-7.82L86.04,83.58h7.69L51.37,234.47z"/>
	<path class="st0" d="M165.54,135.74c-4.43,0.96-7.95,3.84-10.43,11.68l-20.33,65.76c-0.52,1.6-2.08,2.88-4.3,2.88
		c-2.22,0-3.78-1.28-4.43-2.88l-28.41-72.64c-1.3-3.36-2.61-4-7.43-4.64c-0.91-0.16-1.17-0.48-1.17-1.6c0-1.44,0.26-1.76,1.3-1.76
		h34.93c1.17,0,1.56,0.32,1.56,1.44c0,1.12-0.26,1.6-1.82,1.92c-4.04,0.8-5.34,1.92-5.34,3.52c0,0.48,0.13,1.12,0.39,1.76
		l15.77,45.76l12.12-39.2c0.39-1.44,0.65-2.72,0.65-4c0-3.36-1.69-5.76-4.43-7.04c-0.91-0.48-1.96-0.8-3-0.96
		c-1.17-0.32-1.56-0.64-1.56-1.76c0-1.12,0.26-1.44,1.82-1.44h23.85c1.56,0,1.82,0.32,1.82,1.44
		C167.1,135.1,166.84,135.42,165.54,135.74z"/>
	<path class="st0" d="M170.75,234.47h-7.82l42.49-150.88h7.69L170.75,234.47z"/>
	<path class="st0" d="M260.02,213.67h-41.57c-1.04,0-1.43-0.32-1.43-1.6c0-1.28,0.52-1.6,1.3-1.76c7.82-1.12,10.04-2.08,10.04-6.4
		v-99.68c0-4.32-2.22-5.28-10.04-6.4c-0.78-0.16-1.3-0.32-1.3-1.76c0-1.28,0.26-1.6,1.43-1.6h41.57c1.04,0,1.43,0.32,1.43,1.6
		c0,1.44-0.65,1.6-1.3,1.76c-7.82,1.12-10.04,2.08-10.04,6.4v99.68c0,4.32,2.22,5.28,10.04,6.4c0.65,0.16,1.3,0.48,1.3,1.76
		C261.45,213.35,261.06,213.67,260.02,213.67z"/>
	<path class="st0" d="M314.88,213.67h-43.66c-1.04,0-1.43-0.32-1.43-1.6c0-1.28,0.52-1.6,1.3-1.76c7.43-0.96,9.51-2.24,9.51-6.56
		v-99.2c0-4.48-2.08-5.76-9.51-6.72c-0.78-0.16-1.3-0.32-1.3-1.76s0.65-1.6,1.43-1.6c17.98,0,28.02-0.64,44.7-0.64
		c28.54,0,47.18,21.28,47.18,60.48C363.1,193.99,344.46,213.67,314.88,213.67z M312.53,100.22c-3.91,0-10.56,0.64-10.56,0.64v100
		c0,4.32,4.69,6.56,11.34,6.56c10.82,0,26.98-6.56,26.98-49.12C340.29,121.18,326.61,100.22,312.53,100.22z"/>
	<path class="st0" d="M459.41,97.82c-5.21,1.92-9.51,5.6-12.77,13.12l-21.11,48.16v44.48c0,4.32,2.35,5.76,10.43,6.72
		c0.65,0.16,1.3,0.48,1.3,1.76c0,1.28-0.39,1.6-1.43,1.6h-42.1c-1.04,0-1.43-0.32-1.43-1.6c0-1.28,0.65-1.6,1.3-1.76
		c8.34-1.12,10.43-2.4,10.43-6.72v-36l-30.76-64.64c-1.43-3.04-5.6-4.32-8.86-5.12c-0.91-0.16-1.04-0.64-1.04-1.6
		c0-1.28,0.13-1.76,1.17-1.76h40.92c0.91,0,1.17,0.48,1.17,1.44c0,1.12-0.26,1.76-1.69,2.08c-5.21,0.96-7.04,1.92-7.04,3.52
		c0,0.48,0.13,0.96,0.39,1.44l23.33,49.44l17.72-41.28c0.65-1.6,1.04-3.04,1.04-4.32c0-3.68-3.13-6.4-10.43-8.96
		c-0.91-0.32-1.43-0.64-1.43-1.92s0.39-1.44,1.82-1.44h28.67c1.43,0,1.96,0.16,1.96,1.44S460.58,97.5,459.41,97.82z"/>
	<path class="st0" d="M550.37,213.67H508.8c-1.04,0-1.43-0.48-1.43-1.44c0-1.28,0.26-1.76,1.96-2.08c5.34-0.8,7.3-1.6,7.3-3.84
		c0-0.48-0.13-0.96-0.26-1.6l-7.82-24.8h-32.97l-5.21,16.8c-0.52,1.6-0.78,3.04-0.78,4.32c0,4.48,3.26,7.2,11.86,9.28
		c1.04,0.32,1.43,0.64,1.43,1.92c0,1.28-0.52,1.44-1.96,1.44h-30.1c-1.56,0-1.96-0.16-1.96-1.44c0-1.28,0.26-1.6,1.43-1.92
		c7.17-2.24,10.69-6.72,12.9-13.92l31.41-101.44c0.78-2.4,1.69-3.36,3.91-3.36c2.22,0,3.13,0.96,3.91,3.52l37.27,107.68
		c1.43,4.16,5.34,6.72,10.69,7.52c1.04,0.16,1.3,0.48,1.3,1.6C551.67,213.19,551.41,213.67,550.37,213.67z M491.85,126.94
		l-14.34,46.08h28.93L491.85,126.94z"/>
</g>
<g>
	<path class="st0" d="M200.57,359.06c-7.72,1.29-11.08,3.87-11.08,10.57v56.99c0,2.06-0.2,2.58-1.98,4.38
		c-10.69,10.32-32.06,17.54-57,17.54c-50.47,0-76.4-42.29-76.4-100.58c0-58.02,26.72-100.83,73.63-100.83
		c9.9,0,25.53,2.84,34.44,6.71c2.38,1.03,6.53,1.81,9.7,1.81c0.4,0,0.99,0,1.39,0c1.19,0,2.18-0.26,2.97-0.26
		c1.98,0,2.77,0.52,2.97,3.35c0.99,11.6,3.17,35.07,4.55,47.71c0,0.52,0,0.77,0,1.03c0,1.29-0.2,1.55-1.19,1.81
		c-0.4,0.26-0.79,0.26-0.99,0.26c-1.39,0-1.78-1.29-2.18-2.32c-12.67-36.1-27.51-47.71-50.47-47.71
		c-24.15,0-40.18,26.82-40.18,75.82c0,70.66,23.55,100.83,47.9,100.83c15.83,0,21.57-3.87,21.57-17.54v-49
		c0-6.71-3.36-9.03-12.67-10.57c-1.78-0.26-2.18-1.29-2.18-3.09c0-2.06,0.79-2.32,2.97-2.32h53.64c2.18,0,2.77,0.26,2.77,2.32
		C202.75,357.77,202.55,358.54,200.57,359.06z"/>
	<path class="st0" d="M356.53,443.9H293.4c-1.58,0-2.18-0.77-2.18-2.32c0-2.06,0.4-2.84,2.97-3.35c8.11-1.29,11.08-2.58,11.08-6.19
		c0-0.77-0.2-1.55-0.4-2.58L293,389.49h-50.07l-7.92,27.08c-0.79,2.58-1.19,4.9-1.19,6.96c0,7.22,4.95,11.6,18.01,14.96
		c1.58,0.52,2.18,1.03,2.18,3.09c0,2.06-0.79,2.32-2.97,2.32h-45.72c-2.38,0-2.97-0.26-2.97-2.32c0-2.06,0.4-2.58,2.18-3.09
		c10.89-3.61,16.23-10.83,19.59-22.44l47.7-163.5c1.19-3.87,2.57-5.42,5.94-5.42c3.36,0,4.75,1.55,5.94,5.67l56.61,173.56
		c2.18,6.71,8.11,10.83,16.23,12.12c1.58,0.26,1.98,0.77,1.98,2.58C358.51,443.13,358.12,443.9,356.53,443.9z M267.67,304.13
		l-21.77,74.27h43.94L267.67,304.13z"/>
	<path class="st0" d="M482.41,390.52c-2.77,12.64-6.53,39.71-7.52,50.03c-0.4,4.13-1.19,4.64-3.17,4.64
		c-27.71-0.77-40.18-1.29-51.86-1.29H360.3c-1.78,0-2.18-0.52-2.18-2.58c0-2.06,0.79-2.58,1.98-2.84
		c11.08-1.55,14.25-3.61,14.25-10.57V268.02c0-7.22-3.17-9.28-14.25-10.83c-1.19-0.26-1.98-0.52-1.98-2.84
		c0-2.06,0.4-2.58,2.18-2.58h71.45c11.48,0,22.37-0.77,34.64-2.58c0.2,0,0.4,0,0.59,0c1.39,0,2.97,1.03,3.36,4.38
		c0.59,10.32,3.17,35.59,4.95,47.97c0,0.52,0,0.77,0,1.03c0,1.29-0.2,1.55-1.19,1.81c-0.59,0.26-0.99,0.52-1.39,0.52
		c-1.19,0-1.58-1.03-1.98-2.58c-7.52-26.82-22.76-41.52-40.18-41.52h-23.75v78.91c3.36,0,16.23,0,18.41-0.26
		c3.36-0.52,6.93-3.09,9.5-6.45c4.16-5.93,10.89-21.4,12.47-28.37c0.2-1.55,0.79-2.06,1.58-2.06c0.4,0,0.79,0,1.19,0.26
		c1.39,0.52,1.98,1.03,1.98,2.58c0,0.26,0,0.52,0,0.77c-1.78,10.83-3.17,29.92-3.17,38.17c0,9.54,1.58,28.63,3.17,38.43
		c0,0.26,0,0.52,0,0.77c0,1.55-0.59,2.06-1.98,2.58c-0.4,0-0.59,0.26-0.79,0.26c-1.19,0-1.58-0.77-1.98-2.32
		c-1.78-7.22-8.51-22.95-12.67-28.11c-2.38-2.84-5.94-5.67-9.3-6.19c-2.18-0.26-15.04-0.52-18.41-0.52v74.53
		c0,6.45,3.56,8.25,5.94,9.03c2.57,0.77,7.72,1.29,13.06,1.29c8.11,0,16.82-0.77,20.39-2.58c12.27-6.19,21.97-18.31,31.07-42.29
		c0.79-1.55,1.19-2.58,2.18-2.58c0.4,0,0.79,0.26,1.39,0.52c1.19,0.52,1.78,0.77,1.78,2.06C482.61,389.74,482.41,390,482.41,390.52z
		"/>
	<path class="st0" d="M673.8,443.9h-59.97c-1.58,0-2.18-0.52-2.18-2.58c0-2.06,0.79-2.58,1.98-2.84
		c10.29-1.29,13.85-3.87,13.85-10.57V286.07c0-1.03-0.4-1.55-0.79-1.55s-0.99,0.52-1.19,1.55l-39.78,150.35
		c-1.58,6.71-3.36,7.48-7.72,7.48c-4.75,0-5.94-1.29-8.11-7.74l-46.12-151.9c-0.4-1.03-0.79-1.81-1.19-1.81s-0.79,0.77-0.79,2.84
		v131.78c0,11.6,7.52,18.83,18.41,21.4c1.19,0.26,1.98,0.77,1.98,2.84c0,2.06-0.4,2.58-2.18,2.58h-43.74
		c-1.58,0-2.18-0.52-2.18-2.58c0-2.06,0.99-2.58,2.18-2.84c11.08-2.58,16.03-10.06,16.03-21.4V278.34
		c0-11.86-4.75-18.83-16.23-21.15c-0.99-0.26-1.98-0.52-1.98-2.84c0-2.06,0.59-2.58,2.18-2.58h45.52c2.57,0,3.36,2.06,4.35,4.9
		l41.37,132.81l35.63-132.81c0.79-2.84,1.39-4.9,4.75-4.9h45.92c1.58,0,2.18,0.52,2.18,2.58c0,2.32-1.19,2.58-2.18,2.84
		c-10.89,1.29-14.25,4.13-14.25,11.6v159.12c0,6.96,3.56,9.03,14.25,10.57c1.19,0.26,2.18,0.77,2.18,2.84
		C675.98,443.39,675.39,443.9,673.8,443.9z"/>
</g>
<g>
	<path class="st0" d="M36.83,861.57v-73.83h54.8v12.71H52.25v16.37h36.21v12.76H52.25v19.24h41.13v12.76H36.83z"/>
	<path class="st0" d="M104.84,861.57v-73.83h32.75c4.32,0,7.65,0.34,9.99,1.03c2.34,0.69,4.3,1.62,5.88,2.79
		c1.57,1.17,2.9,2.5,3.97,3.99c1.07,1.49,1.89,3.09,2.46,4.8c1.07,3.21,1.61,6.71,1.61,10.5c0,4.59-0.63,8.46-1.88,11.63
		c-1.26,3.16-3.02,5.65-5.3,7.46c-2.28,1.81-5.12,3.18-8.54,4.12c-2.41,0.67-5.68,1-9.79,1h-15.72v26.52H104.84z M120.26,800.45
		v21.85h14.62c2.68,0,4.85-0.47,6.5-1.41c1.66-0.94,2.85-2.26,3.59-3.97c0.74-1.71,1.1-3.63,1.1-5.78c0-3.31-0.96-5.93-2.89-7.83
		c-1.93-1.91-4.7-2.86-8.31-2.86H120.26z"/>
	<path class="st0" d="M172.79,861.57v-73.83h15.42v73.83H172.79z"/>
	<path class="st0" d="M213.53,838.82c0.1,2.44,0.55,4.37,1.36,5.78c1.07,1.88,2.86,3.36,5.37,4.44c2.51,1.09,5.58,1.63,9.19,1.63
		c5.32,0,9.37-1.07,12.15-3.21c2.04-1.54,3.06-3.58,3.06-6.13c0-1.64-0.44-3.03-1.33-4.17c-0.89-1.14-2.22-2.04-3.99-2.71
		c-1.77-0.7-4.45-1.47-8.04-2.31l-7.94-1.86c-5.06-1.17-8.77-2.23-11.15-3.16c-3.11-1.27-5.48-2.69-7.11-4.24
		c-1.62-1.56-2.9-3.5-3.82-5.83c-0.92-2.33-1.38-5-1.38-8.01c0-5.39,1.31-9.82,3.94-13.28c2.63-3.47,6.12-5.98,10.47-7.53
		c4.35-1.56,8.92-2.33,13.71-2.33c3.75,0,7.29,0.42,10.62,1.26c3.33,0.84,6.14,1.98,8.44,3.44c2.29,1.46,4.19,3.16,5.68,5.12
		c1.49,1.96,2.56,3.97,3.21,6.03s1.03,4.76,1.13,8.11H242.3c-0.1-2.31-0.61-4.24-1.53-5.8c-0.92-1.56-2.53-2.85-4.82-3.87
		c-2.29-1.02-5.1-1.53-8.41-1.53c-4.62,0-8.01,0.88-10.17,2.64s-3.24,3.96-3.24,6.6c0,2.38,0.85,4.19,2.56,5.42
		c1,0.74,3.77,1.61,8.29,2.61l15.17,3.52c3.92,0.9,7.08,2.03,9.49,3.37c3.28,1.84,5.74,4.14,7.38,6.88
		c1.64,2.75,2.46,6.08,2.46,9.99c0,3.28-0.54,6.24-1.61,8.87c-1.07,2.63-2.41,4.78-4.02,6.45c-1.61,1.67-3.6,3.14-5.98,4.39
		c-2.38,1.26-5.32,2.24-8.81,2.96c-3.5,0.72-7.02,1.08-10.57,1.08c-4.49,0-8.77-0.62-12.86-1.86c-2.81-0.84-5.27-1.97-7.36-3.39
		c-2.09-1.42-3.84-3.11-5.25-5.07s-2.44-4.01-3.09-6.15s-1.06-4.85-1.23-8.14H213.53z"/>
	<path class="st0" d="M267.92,824.65c0-7.73,1.42-14.62,4.27-20.64c2.85-6.03,7.01-10.55,12.51-13.59
		c5.49-3.03,11.57-4.54,18.23-4.54c7.27,0,13.67,1.67,19.21,5.02c5.54,3.35,9.72,8.06,12.53,14.14s4.22,12.62,4.22,19.61
		c0,7.37-1.52,14.13-4.55,20.29c-3.03,6.16-7.34,10.78-12.93,13.86c-5.59,3.08-11.75,4.62-18.48,4.62c-6.86,0-13.05-1.58-18.56-4.75
		c-5.51-3.16-9.63-7.78-12.35-13.84C269.28,838.78,267.92,832.05,267.92,824.65z M303.43,850.12c3.72,0,7.14-1,10.27-2.99
		c3.13-1.99,5.54-5,7.23-9.04c1.69-4.03,2.54-8.51,2.54-13.43c0-4.89-0.83-9.35-2.49-13.38c-1.66-4.04-4.06-7.06-7.21-9.07
		c-3.15-2.01-6.6-3.01-10.35-3.01c-3.78,0-7.25,1-10.4,3.01c-3.15,2.01-5.55,5.03-7.21,9.07s-2.49,8.5-2.49,13.38
		c0,4.72,0.79,9.09,2.39,13.11c1.59,4.02,3.96,7.08,7.11,9.19C295.98,849.06,299.51,850.12,303.43,850.12z"/>
	<path class="st0" d="M350.64,861.57v-73.83h32.29c9.68,0,16.96,2.7,21.85,8.09c5.96,6.56,8.94,15.75,8.94,27.57
		c0,5.59-0.61,10.75-1.83,15.47c-1.22,4.72-2.85,8.64-4.87,11.75c-2.03,3.11-4.24,5.42-6.65,6.93c-2.41,1.51-5.1,2.55-8.06,3.14
		c-2.96,0.59-7.51,0.88-13.64,0.88H350.64z M366.06,800.45v48.37h13.46c3.25,0,5.94-0.43,8.09-1.28c2.14-0.85,3.87-2.03,5.17-3.54
		c1.31-1.51,2.36-3.58,3.16-6.23c1.34-4.45,2.01-9.19,2.01-14.21c0-3.68-0.43-7.09-1.28-10.22c-0.85-3.13-2.04-5.67-3.57-7.61
		c-1.52-1.94-3.28-3.31-5.27-4.09c-1.99-0.79-4.76-1.18-8.31-1.18H366.06z"/>
	<path class="st0" d="M425.52,861.57v-73.83h54.8v12.71h-39.38v16.37h36.21v12.76h-36.21v19.24h41.13v12.76H425.52z"/>
	<path class="st0" d="M495.69,824.45v-15.42h15.42v15.42H495.69z M495.69,861.57v-15.42h15.42v15.42H495.69z"/>
	<path class="st0" d="M554.05,844.29h14.21c0.37,2.41,1.28,4.24,2.74,5.47c1.46,1.24,3.32,1.86,5.6,1.86c3.25,0,5.86-1.29,7.83-3.87
		c2.61-3.45,4.03-9.12,4.27-17.03c-2.31,2.44-4.45,4.12-6.43,5.02c-1.98,0.9-4.49,1.36-7.53,1.36c-4.12,0-7.97-0.98-11.55-2.94
		c-3.58-1.96-6.26-4.76-8.04-8.41c-1.77-3.65-2.66-7.63-2.66-11.95c0-4.85,1.06-9.33,3.19-13.44c2.13-4.1,5.05-7.16,8.76-9.19
		c3.72-2.03,7.87-3.04,12.46-3.04c5.22,0,9.79,1.28,13.71,3.84c3.92,2.56,6.95,6.45,9.09,11.65c2.14,5.21,3.21,12.11,3.21,20.72
		c0,9.94-1.22,17.77-3.67,23.48c-2.44,5.71-5.73,9.7-9.84,11.98c-4.12,2.28-8.51,3.42-13.16,3.42c-5.89,0-10.78-1.46-14.67-4.37
		C557.7,855.94,555.19,851.09,554.05,844.29z M588.6,813.2c0-4.29-1.08-7.6-3.24-9.94s-4.86-3.52-8.11-3.52
		c-3.05,0-5.57,1.1-7.56,3.29c-1.99,2.19-2.99,5.38-2.99,9.57c0,4.15,1.03,7.34,3.09,9.57c2.06,2.23,4.7,3.34,7.91,3.34
		c3.15,0,5.75-1.1,7.81-3.31C587.57,819.98,588.6,816.99,588.6,813.2z"/>
</g>
<g>
	<path class="st0" d="M1172.95,997c0,0.24-0.09,0.38-0.28,0.43c-0.23,0.1-0.36,0.14-0.4,0.14c-0.27,0-0.46-0.24-0.57-0.72
		c-0.57-1.97-1.34-3.74-2.3-5.33s-2.05-2.93-3.24-4.03c-1.2-1.1-2.45-1.97-3.75-2.59c-1.31-0.62-2.57-0.94-3.78-0.94
		c-3.22,0-5.58,0.65-7.05,1.94c-1.48,1.3-2.22,3.02-2.22,5.18c0,1.15,0.2,2.2,0.6,3.13c0.4,0.94,1.04,1.84,1.93,2.7
		c0.89,0.86,2.07,1.71,3.53,2.52c1.46,0.82,3.25,1.63,5.38,2.45c4.78,1.82,8.45,4.3,11.01,7.42c2.56,3.12,3.84,7.06,3.84,11.81
		c0,4.99-1.44,8.88-4.32,11.66c-2.88,2.78-7.28,4.18-13.2,4.18c-1.06,0-2.18-0.08-3.36-0.25c-1.18-0.17-2.33-0.4-3.47-0.68
		s-2.23-0.64-3.27-1.04c-1.04-0.41-1.96-0.83-2.76-1.26c-0.61-0.24-0.95-0.67-1.02-1.3c-0.04-0.72-0.11-1.66-0.23-2.81
		c-0.11-1.15-0.25-2.38-0.4-3.67s-0.31-2.59-0.48-3.89c-0.17-1.3-0.35-2.42-0.54-3.38c0-0.1-0.01-0.17-0.03-0.22
		c-0.02-0.05-0.03-0.1-0.03-0.14c0-0.29,0.15-0.5,0.46-0.65c0.08-0.05,0.19-0.07,0.34-0.07h0.06c0.27,0,0.46,0.22,0.57,0.65
		c0.91,2.64,1.97,4.92,3.19,6.84c1.21,1.92,2.47,3.5,3.78,4.75c1.31,1.25,2.62,2.17,3.92,2.77c1.31,0.6,2.53,0.9,3.67,0.9
		c2.96,0,5.22-0.68,6.8-2.05c1.57-1.37,2.36-3.28,2.36-5.72c0-2.45-0.83-4.68-2.5-6.7c-1.67-2.02-4.38-3.89-8.13-5.62
		c-2.43-1.1-4.53-2.24-6.31-3.42c-1.78-1.18-3.26-2.47-4.44-3.89s-2.05-2.99-2.62-4.72c-0.57-1.73-0.85-3.67-0.85-5.83
		c0-2.21,0.34-4.22,1.02-6.05c0.68-1.82,1.68-3.38,2.99-4.68s2.95-2.3,4.92-3.02c1.97-0.72,4.23-1.08,6.77-1.08
		c0.72,0,1.5,0.06,2.33,0.18c0.83,0.12,1.65,0.26,2.45,0.43c0.8,0.17,1.54,0.35,2.25,0.54c0.7,0.19,1.28,0.34,1.74,0.43
		c0.11,0.05,0.25,0.07,0.4,0.07s0.3,0,0.46,0c0.38,0,0.76-0.02,1.14-0.07s0.72-0.12,1.02-0.22c0.38-0.1,0.61-0.14,0.68-0.14
		c0.34,0,0.53,0.34,0.57,1.01c0.08,0.86,0.16,1.9,0.26,3.1c0.09,1.2,0.21,2.44,0.34,3.71c0.13,1.27,0.27,2.52,0.43,3.74
		c0.15,1.22,0.28,2.27,0.4,3.13V997z"/>
	<path class="st0" d="M1207.88,1028.11c0,1.68,0.11,2.88,0.34,3.6s0.72,1.08,1.48,1.08c0.34,0,0.67-0.07,1-0.22
		c0.32-0.14,0.63-0.34,0.94-0.58c0.11-0.1,0.21-0.17,0.29-0.22c0.08-0.05,0.15-0.07,0.23-0.07c0.11,0,0.25,0.14,0.4,0.43
		c0.11,0.19,0.17,0.41,0.17,0.65c0,0.29-0.13,0.58-0.4,0.86c-0.83,0.96-1.85,1.72-3.04,2.27c-1.19,0.55-2.46,0.83-3.78,0.83
		c-1.82,0-3.17-0.44-4.04-1.33c-0.87-0.89-1.44-2.24-1.71-4.07c-0.99,1.73-2.42,3.06-4.3,4c-1.88,0.94-4.01,1.4-6.4,1.4
		c-2.5,0-4.48-0.86-5.92-2.59c-1.44-1.73-2.16-4.03-2.16-6.91c0-3.7,0.87-6.56,2.62-8.6c1.74-2.04,4.63-3.52,8.65-4.43
		c0.99-0.24,2.08-0.53,3.27-0.86c1.19-0.33,2.34-0.7,3.44-1.08c0-1.92-0.16-3.54-0.48-4.86c-0.32-1.32-0.76-2.4-1.31-3.24
		c-0.55-0.84-1.19-1.44-1.93-1.8c-0.74-0.36-1.53-0.54-2.36-0.54c-1.59,0-2.74,0.32-3.44,0.97c-0.7,0.65-1.05,1.45-1.05,2.41
		c0,0.43,0.04,0.78,0.11,1.04c0.08,0.26,0.16,0.53,0.26,0.79c0.09,0.26,0.18,0.55,0.26,0.86c0.08,0.31,0.11,0.73,0.11,1.26
		c0,1.25-0.31,2.18-0.94,2.81c-0.63,0.63-1.51,0.94-2.65,0.94c-1.1,0-1.97-0.43-2.62-1.3c-0.65-0.86-0.97-1.99-0.97-3.38
		c0-1.39,0.29-2.71,0.88-3.96s1.44-2.33,2.56-3.24c1.12-0.91,2.48-1.63,4.1-2.16c1.61-0.53,3.44-0.79,5.49-0.79
		c2.28,0,4.23,0.35,5.86,1.04c1.63,0.7,2.97,1.67,4.01,2.92c1.04,1.25,1.81,2.76,2.3,4.54c0.49,1.78,0.74,3.74,0.74,5.9V1028.11z
		 M1199.17,1016.01c-0.87,0.38-1.76,0.68-2.67,0.9s-1.8,0.47-2.67,0.76c-1.67,0.53-2.88,1.38-3.64,2.56c-0.76,1.18-1.14,2.84-1.14,5
		c0,1.68,0.45,2.98,1.34,3.89c0.89,0.91,2.02,1.37,3.38,1.37h0.17c1.02,0,2.03-0.3,3.01-0.9c0.99-0.6,1.73-1.38,2.22-2.34V1016.01z"
		/>
	<path class="st0" d="M1250.2,1035.67c-0.42,0-0.63-0.24-0.63-0.72c0-0.29,0.05-0.48,0.14-0.58c0.09-0.1,0.24-0.17,0.43-0.22
		c1.1-0.14,1.74-0.46,1.93-0.94c0.19-0.48,0.28-1.22,0.28-2.23v-16.34c0-2.06-0.08-3.8-0.23-5.22c-0.15-1.42-0.39-2.56-0.71-3.42
		s-0.71-1.49-1.17-1.87c-0.46-0.38-1-0.58-1.65-0.58c-0.8,0-1.62,0.4-2.47,1.19s-1.6,1.76-2.25,2.92c0.08,0.82,0.14,1.69,0.2,2.63
		c0.06,0.94,0.08,1.96,0.08,3.06v17.64c0,1.01,0.12,1.75,0.37,2.23c0.25,0.48,0.8,0.79,1.68,0.94c0.15,0.05,0.28,0.12,0.4,0.22
		c0.11,0.1,0.17,0.29,0.17,0.58c0,0.48-0.21,0.72-0.63,0.72h-12.8c-0.42,0-0.63-0.24-0.63-0.72c0-0.29,0.06-0.48,0.17-0.58
		c0.11-0.1,0.25-0.17,0.4-0.22c1.1-0.14,1.75-0.46,1.96-0.94c0.21-0.48,0.31-1.22,0.31-2.23v-16.34c0-2.06-0.09-3.8-0.26-5.22
		c-0.17-1.42-0.43-2.56-0.77-3.42c-0.34-0.86-0.76-1.49-1.25-1.87c-0.49-0.38-1.06-0.58-1.71-0.58c-0.76,0-1.51,0.29-2.25,0.86
		s-1.39,1.39-1.96,2.45v24.12c0,1.92,0.66,2.98,1.99,3.17c0.19,0.05,0.34,0.12,0.46,0.22c0.11,0.1,0.17,0.29,0.17,0.58
		c0,0.48-0.21,0.72-0.63,0.72h-13.82c-0.42,0-0.63-0.24-0.63-0.72c0-0.29,0.05-0.48,0.14-0.58c0.09-0.1,0.24-0.17,0.43-0.22
		c1.17-0.14,2-0.46,2.47-0.94c0.47-0.48,0.71-1.22,0.71-2.23v-25.49c0-0.48-0.02-0.86-0.06-1.15c-0.04-0.29-0.15-0.5-0.34-0.65
		c-0.19-0.14-0.47-0.23-0.85-0.25c-0.38-0.02-0.93-0.04-1.65-0.04c-0.49,0-0.74-0.31-0.74-0.94c0-0.24,0.05-0.44,0.14-0.61
		c0.09-0.17,0.24-0.28,0.43-0.32c1.82-0.38,3.68-0.88,5.58-1.48c1.9-0.6,3.75-1.24,5.58-1.91h0.17c0.3,0,0.46,0.31,0.46,0.94v3.82
		c1.06-1.54,2.33-2.72,3.81-3.56c1.48-0.84,2.94-1.26,4.38-1.26c1.97,0,3.56,0.49,4.75,1.48c1.19,0.98,2.11,2.51,2.76,4.57
		c1.14-1.68,2.53-3.11,4.18-4.28c1.65-1.18,3.44-1.76,5.38-1.76c3.07,0,5.24,1.24,6.51,3.71c1.27,2.47,1.91,6.33,1.91,11.56v17.64
		c0,1.01,0.21,1.73,0.63,2.16c0.42,0.43,1.27,0.77,2.56,1.01c0.15,0.05,0.29,0.12,0.4,0.22c0.11,0.1,0.17,0.29,0.17,0.58
		c0,0.48-0.21,0.72-0.63,0.72H1250.2z"/>
	<path class="st0" d="M1296.96,1027.39c0,0.24-0.02,0.41-0.06,0.5c-0.87,2.88-2.34,5.08-4.41,6.59c-2.07,1.51-4.71,2.27-7.94,2.27
		c-2.5,0-4.72-0.48-6.66-1.44c-1.93-0.96-3.57-2.29-4.89-4c-1.33-1.7-2.34-3.74-3.04-6.12c-0.7-2.38-1.05-4.98-1.05-7.81
		c0-2.98,0.39-5.65,1.17-8.03s1.84-4.4,3.19-6.08c1.35-1.68,2.94-2.96,4.78-3.85c1.84-0.89,3.84-1.33,6-1.33
		c2.12,0,4.04,0.47,5.75,1.4c1.71,0.94,3.17,2.18,4.38,3.74s2.15,3.36,2.82,5.4c0.66,2.04,1,4.19,1,6.44c0,0.82-0.04,1.38-0.11,1.69
		c-0.08,0.31-0.27,0.49-0.57,0.54l-19.63,1.94c0.23,2.4,0.65,4.44,1.28,6.12c0.63,1.68,1.37,3.04,2.22,4.07
		c0.85,1.03,1.79,1.79,2.82,2.27c1.02,0.48,2.07,0.72,3.13,0.72c1.55,0,3.09-0.48,4.61-1.44c1.52-0.96,2.77-2.42,3.75-4.39
		c0.11-0.29,0.3-0.43,0.57-0.43c0.23,0,0.44,0.1,0.63,0.29c0.19,0.24,0.28,0.53,0.28,0.86V1027.39z M1290.08,1013.56
		c0-1.39-0.16-2.78-0.48-4.18c-0.32-1.39-0.77-2.66-1.34-3.82c-0.57-1.15-1.24-2.09-2.02-2.81c-0.78-0.72-1.62-1.08-2.53-1.08
		c-1.93,0-3.47,0.96-4.61,2.88s-1.71,5.16-1.71,9.72c0,0.34,0,0.64,0,0.9c0,0.26,0.02,0.54,0.06,0.83l12.17-1.51
		c0.3-0.05,0.46-0.26,0.46-0.65V1013.56z"/>
	<path class="st0" d="M1341.45,1009.46c0,0.48-0.13,0.75-0.4,0.79c-0.08,0-0.13,0.01-0.17,0.04c-0.04,0.02-0.1,0.04-0.17,0.04
		c-0.3,0-0.51-0.19-0.63-0.58c-0.68-1.82-1.39-3.3-2.13-4.43c-0.74-1.13-1.52-2-2.33-2.63s-1.65-1.06-2.5-1.3
		c-0.85-0.24-1.74-0.36-2.65-0.36c-1.52,0-2.71,0.38-3.58,1.15c-0.87,0.77-1.31,1.94-1.31,3.53c0,0.67,0.1,1.27,0.31,1.8
		c0.21,0.53,0.58,1.04,1.11,1.55c0.53,0.5,1.28,1.01,2.25,1.51s2.19,1.09,3.67,1.76c1.78,0.77,3.32,1.58,4.61,2.45
		c1.29,0.86,2.35,1.8,3.19,2.81c0.83,1.01,1.45,2.15,1.85,3.42c0.4,1.27,0.6,2.7,0.6,4.28c0,1.92-0.25,3.6-0.74,5.04
		c-0.49,1.44-1.28,2.64-2.36,3.6s-2.5,1.67-4.27,2.12c-1.76,0.46-3.9,0.68-6.4,0.68c-2.05,0-3.97-0.3-5.77-0.9
		c-1.8-0.6-3.25-1.24-4.35-1.91c-0.19-0.1-0.35-0.2-0.48-0.32c-0.13-0.12-0.22-0.32-0.26-0.61c-0.04-0.58-0.09-1.28-0.17-2.12
		c-0.08-0.84-0.15-1.73-0.23-2.66c-0.08-0.94-0.16-1.87-0.26-2.81c-0.09-0.94-0.2-1.84-0.31-2.7c0-0.05-0.01-0.08-0.03-0.11
		c-0.02-0.02-0.03-0.06-0.03-0.11c0-0.24,0.13-0.41,0.4-0.5c0.08,0,0.13-0.01,0.17-0.04c0.04-0.02,0.08-0.04,0.11-0.04
		c0.19,0,0.31,0.05,0.37,0.14c0.06,0.1,0.12,0.19,0.2,0.29c2.24,7.44,5.44,11.16,9.61,11.16c2.01,0,3.45-0.42,4.32-1.26
		c0.87-0.84,1.31-1.96,1.31-3.35c0-0.91-0.12-1.74-0.37-2.48c-0.25-0.74-0.68-1.44-1.31-2.09c-0.63-0.65-1.48-1.28-2.56-1.91
		c-1.08-0.62-2.46-1.3-4.12-2.02c-2.62-1.15-4.58-2.6-5.89-4.36c-1.31-1.75-1.96-4.07-1.96-6.95c0-1.54,0.25-2.98,0.74-4.32
		c0.49-1.34,1.2-2.51,2.13-3.49c0.93-0.98,2.06-1.76,3.38-2.34c1.33-0.58,2.82-0.86,4.49-0.86c1.74,0,3.33,0.06,4.75,0.18
		c1.42,0.12,2.59,0.35,3.5,0.68c0.3,0.1,0.59,0.17,0.85,0.22c0.26,0.05,0.49,0.07,0.68,0.07c0.53,0,0.99-0.14,1.37-0.43
		c0.15-0.1,0.28-0.14,0.4-0.14c0.23,0,0.38,0.24,0.46,0.72c0.08,1.58,0.19,3.24,0.34,4.97
		C1341.03,1006.08,1341.22,1007.78,1341.45,1009.46z"/>
	<path class="st0" d="M1367.5,1035.67c-0.42,0-0.63-0.24-0.63-0.72c0-0.29,0.05-0.48,0.14-0.58c0.09-0.1,0.24-0.17,0.43-0.22
		c1.1-0.14,1.83-0.46,2.19-0.94c0.36-0.48,0.54-1.22,0.54-2.23v-16.34c0-2.02-0.13-3.73-0.4-5.15c-0.27-1.42-0.63-2.57-1.08-3.46
		c-0.46-0.89-0.98-1.52-1.56-1.91c-0.59-0.38-1.21-0.58-1.85-0.58c-1.14,0-2.18,0.36-3.13,1.08c-0.95,0.72-1.76,1.63-2.45,2.74
		v23.62c0,1.06,0.18,1.81,0.54,2.27c0.36,0.46,1.09,0.76,2.19,0.9c0.19,0.05,0.34,0.12,0.46,0.22c0.11,0.1,0.17,0.29,0.17,0.58
		c0,0.48-0.21,0.72-0.63,0.72h-14.62c-0.42,0-0.63-0.24-0.63-0.72c0-0.29,0.05-0.48,0.14-0.58c0.09-0.1,0.24-0.17,0.43-0.22
		c1.17-0.14,2-0.46,2.47-0.94c0.47-0.48,0.71-1.22,0.71-2.23v-42.91c0-0.48-0.02-0.85-0.06-1.12c-0.04-0.26-0.15-0.47-0.34-0.61
		c-0.19-0.14-0.47-0.24-0.85-0.29c-0.38-0.05-0.93-0.07-1.65-0.07c-0.27,0-0.46-0.1-0.57-0.29c-0.11-0.19-0.17-0.41-0.17-0.65
		c0-0.53,0.19-0.82,0.57-0.86c1.86-0.43,3.73-0.95,5.6-1.55c1.88-0.6,3.75-1.24,5.6-1.91h0.17c0.3,0,0.46,0.31,0.46,0.94v21.31
		c1.29-1.63,2.78-2.85,4.47-3.67c1.69-0.82,3.4-1.22,5.15-1.22c3.11,0,5.5,1.27,7.17,3.82s2.5,6.36,2.5,11.45v17.64
		c0,1.01,0.24,1.75,0.71,2.23c0.47,0.48,1.3,0.79,2.47,0.94c0.19,0.05,0.33,0.12,0.43,0.22c0.09,0.1,0.14,0.29,0.14,0.58
		c0,0.48-0.21,0.72-0.63,0.72H1367.5z"/>
	<path class="st0" d="M1386.44,1035.67c-0.42,0-0.63-0.24-0.63-0.72c0-0.29,0.06-0.48,0.17-0.58c0.11-0.1,0.25-0.17,0.4-0.22
		c1.52-0.19,2.5-0.52,2.96-0.97c0.46-0.46,0.68-1.19,0.68-2.2v-25.56c0-0.48-0.02-0.86-0.06-1.15c-0.04-0.29-0.14-0.5-0.31-0.65
		c-0.17-0.14-0.46-0.23-0.85-0.25c-0.4-0.02-0.96-0.04-1.68-0.04c-0.49,0-0.74-0.31-0.74-0.94c0-0.19,0.05-0.37,0.14-0.54
		c0.09-0.17,0.24-0.28,0.43-0.32c1.93-0.43,3.88-0.95,5.83-1.55c1.95-0.6,3.8-1.24,5.55-1.91h0.17c0.3,0,0.46,0.31,0.46,0.94v31.97
		c0,1.01,0.22,1.74,0.65,2.2c0.44,0.46,1.41,0.78,2.93,0.97c0.19,0.05,0.33,0.12,0.43,0.22c0.09,0.1,0.14,0.29,0.14,0.58
		c0,0.48-0.21,0.72-0.63,0.72H1386.44z M1394.35,993.76c-0.68,0-1.33-0.18-1.93-0.54c-0.61-0.36-1.14-0.85-1.59-1.48
		c-0.46-0.62-0.82-1.32-1.08-2.09c-0.27-0.77-0.4-1.58-0.4-2.45s0.13-1.68,0.4-2.45c0.26-0.77,0.63-1.45,1.08-2.05
		c0.46-0.6,0.99-1.08,1.59-1.44c0.61-0.36,1.25-0.54,1.93-0.54c0.68,0,1.33,0.18,1.93,0.54c0.61,0.36,1.14,0.84,1.59,1.44
		c0.46,0.6,0.82,1.29,1.08,2.05c0.26,0.77,0.4,1.58,0.4,2.45s-0.13,1.68-0.4,2.45c-0.27,0.77-0.63,1.46-1.08,2.09
		c-0.46,0.62-0.99,1.12-1.59,1.48C1395.68,993.58,1395.03,993.76,1394.35,993.76z"/>
	<path class="st0" d="M1409.88,1002.26h-3.64c-0.49,0-0.8-0.41-0.91-1.22c0-0.1-0.01-0.17-0.03-0.22c-0.02-0.05-0.03-0.1-0.03-0.14
		c0-0.62,0.38-1.01,1.14-1.15c0.99-0.14,2.01-0.56,3.07-1.26c1.06-0.7,2.07-1.58,3.02-2.66c0.95-1.08,1.8-2.3,2.56-3.67
		c0.76-1.37,1.33-2.79,1.71-4.28c0.08-0.38,0.22-0.62,0.43-0.72c0.21-0.1,0.46-0.14,0.77-0.14c0.46,0,0.68,0.43,0.68,1.3v11.09h6.2
		c0.3,0,0.49,0.12,0.57,0.36c0.08,0.24,0.11,0.62,0.11,1.15c0,0.53-0.04,0.92-0.11,1.19c-0.08,0.26-0.27,0.4-0.57,0.4h-6.14v24.19
		c0,2.02,0.34,3.52,1.02,4.5c0.68,0.98,1.57,1.48,2.67,1.48c0.72,0,1.42-0.16,2.1-0.47c0.68-0.31,1.25-0.71,1.71-1.19
		c0.19-0.24,0.36-0.36,0.51-0.36c0.11,0,0.25,0.1,0.4,0.29c0.11,0.19,0.17,0.38,0.17,0.58c0,0.29-0.13,0.6-0.4,0.94
		c-0.95,1.44-2.06,2.56-3.33,3.35c-1.27,0.79-2.74,1.19-4.41,1.19c-2.96,0-5.24-0.84-6.85-2.52c-1.61-1.68-2.42-4.29-2.42-7.85
		V1002.26z"/>
	<path class="st0" d="M1440.77,1034.3c-0.42,0.63-0.89,1.07-1.42,1.33c-0.53,0.26-1.06,0.4-1.59,0.4c-1.4,0-2.56-0.6-3.47-1.8
		c-0.91-1.2-1.37-2.64-1.37-4.32c0-1.92,0.5-3.48,1.51-4.68c1-1.2,2.21-1.8,3.61-1.8c1.63,0,2.97,0.75,4.01,2.23
		c1.04,1.49,1.66,3.38,1.85,5.69c0.04,0.34,0.06,0.65,0.06,0.94s0,0.58,0,0.86c0,3.55-0.69,6.5-2.08,8.86
		c-1.38,2.35-3.44,3.84-6.17,4.46c-0.11,0.05-0.27,0.07-0.46,0.07c-0.27,0-0.42-0.26-0.46-0.79c-0.04-0.14-0.06-0.34-0.06-0.58
		c0-0.24,0.06-0.4,0.17-0.47c0.11-0.07,0.32-0.16,0.63-0.25c0.91-0.29,1.71-0.72,2.39-1.3s1.25-1.25,1.71-2.02s0.79-1.6,1-2.48
		c0.21-0.89,0.31-1.76,0.31-2.63C1440.94,1035.45,1440.88,1034.88,1440.77,1034.3z"/>
	<path class="st0" d="M1499.65,1030.7c0.19,0,0.33,0.08,0.43,0.25c0.09,0.17,0.14,0.37,0.14,0.61s-0.04,0.46-0.11,0.65
		c-0.08,0.19-0.21,0.34-0.4,0.43c-1.82,0.82-3.58,1.56-5.26,2.23c-1.69,0.67-3.52,1.27-5.49,1.8h-0.17c-0.19,0-0.34-0.31-0.46-0.94
		l-0.17-3.1c-0.76,1.25-1.85,2.25-3.27,2.99c-1.42,0.74-3.06,1.12-4.92,1.12c-2.09,0-3.95-0.48-5.6-1.44
		c-1.65-0.96-3.04-2.29-4.18-4c-1.14-1.7-2-3.73-2.59-6.08c-0.59-2.35-0.88-4.92-0.88-7.7s0.3-5.36,0.91-7.74s1.48-4.43,2.62-6.16
		c1.14-1.73,2.53-3.08,4.18-4.07c1.65-0.98,3.52-1.48,5.6-1.48c1.63,0,3.1,0.31,4.41,0.94c1.31,0.63,2.32,1.37,3.04,2.23v-13.18
		c0-0.48-0.02-0.85-0.06-1.12c-0.04-0.26-0.15-0.47-0.34-0.61c-0.19-0.14-0.47-0.24-0.85-0.29c-0.38-0.05-0.93-0.07-1.65-0.07
		c-0.27,0-0.46-0.1-0.57-0.29c-0.11-0.19-0.17-0.41-0.17-0.65c0-0.53,0.19-0.82,0.57-0.86c1.86-0.43,3.74-0.95,5.66-1.55
		c1.91-0.6,3.76-1.24,5.55-1.91h0.17c0.3,0,0.46,0.31,0.46,0.94v47.16c0,0.82,0.07,1.39,0.2,1.73c0.13,0.34,0.46,0.5,1,0.5
		c0.26,0,0.57-0.02,0.91-0.07c0.34-0.05,0.74-0.14,1.19-0.29H1499.65z M1487.7,1012.48c0-1.54-0.17-2.94-0.51-4.21
		c-0.34-1.27-0.81-2.36-1.39-3.28c-0.59-0.91-1.27-1.61-2.05-2.09c-0.78-0.48-1.62-0.72-2.53-0.72c-1.75,0-3.15,0.94-4.21,2.81
		c-1.06,1.87-1.59,4.9-1.59,9.07c0,3.22,0.21,5.96,0.63,8.24c0.42,2.28,0.99,4.14,1.71,5.58c0.72,1.44,1.56,2.5,2.53,3.17
		c0.97,0.67,1.98,1.01,3.04,1.01c0.87,0,1.72-0.34,2.53-1.01c0.82-0.67,1.43-1.54,1.85-2.59V1012.48z"/>
	<path class="st0" d="M1503.74,1035.67c-0.42,0-0.63-0.24-0.63-0.72c0-0.29,0.06-0.48,0.17-0.58c0.11-0.1,0.25-0.17,0.4-0.22
		c1.52-0.19,2.5-0.52,2.96-0.97c0.46-0.46,0.68-1.19,0.68-2.2v-25.56c0-0.48-0.02-0.86-0.06-1.15c-0.04-0.29-0.14-0.5-0.31-0.65
		c-0.17-0.14-0.46-0.23-0.85-0.25c-0.4-0.02-0.96-0.04-1.68-0.04c-0.49,0-0.74-0.31-0.74-0.94c0-0.19,0.05-0.37,0.14-0.54
		c0.09-0.17,0.24-0.28,0.43-0.32c1.93-0.43,3.88-0.95,5.83-1.55c1.95-0.6,3.8-1.24,5.55-1.91h0.17c0.3,0,0.46,0.31,0.46,0.94v31.97
		c0,1.01,0.22,1.74,0.65,2.2c0.44,0.46,1.41,0.78,2.93,0.97c0.19,0.05,0.33,0.12,0.43,0.22c0.09,0.1,0.14,0.29,0.14,0.58
		c0,0.48-0.21,0.72-0.63,0.72H1503.74z M1511.65,993.76c-0.68,0-1.33-0.18-1.93-0.54c-0.61-0.36-1.14-0.85-1.59-1.48
		c-0.46-0.62-0.82-1.32-1.08-2.09c-0.27-0.77-0.4-1.58-0.4-2.45s0.13-1.68,0.4-2.45c0.26-0.77,0.63-1.45,1.08-2.05
		c0.46-0.6,0.99-1.08,1.59-1.44c0.61-0.36,1.25-0.54,1.93-0.54c0.68,0,1.33,0.18,1.93,0.54c0.61,0.36,1.14,0.84,1.59,1.44
		c0.46,0.6,0.82,1.29,1.08,2.05c0.26,0.77,0.4,1.58,0.4,2.45s-0.13,1.68-0.4,2.45c-0.27,0.77-0.63,1.46-1.08,2.09
		c-0.46,0.62-0.99,1.12-1.59,1.48C1512.98,993.58,1512.33,993.76,1511.65,993.76z"/>
	<path class="st0" d="M1523.65,1035.67c-0.42,0-0.63-0.24-0.63-0.72c0-0.29,0.05-0.48,0.14-0.58c0.09-0.1,0.24-0.17,0.43-0.22
		c1.52-0.19,2.51-0.52,2.99-0.97c0.47-0.46,0.71-1.19,0.71-2.2v-28.87h-4.15c-0.3,0-0.48-0.14-0.54-0.43
		c-0.06-0.29-0.09-0.62-0.09-1.01c0-0.43,0.03-0.79,0.09-1.08c0.06-0.29,0.24-0.43,0.54-0.43h4.15v-2.74c0-5.04,0.9-8.92,2.7-11.63
		c1.8-2.71,4.54-4.07,8.22-4.07c1.29,0,2.45,0.19,3.47,0.58c1.02,0.38,1.89,0.9,2.59,1.55c0.7,0.65,1.24,1.39,1.62,2.23
		c0.38,0.84,0.57,1.74,0.57,2.7c0,1.68-0.25,2.87-0.74,3.56c-0.49,0.7-1.19,1.04-2.1,1.04c-1.44,0-2.39-0.43-2.84-1.3
		c-0.46-0.86-0.68-1.87-0.68-3.02c0-0.53-0.03-1.04-0.08-1.55s-0.16-0.95-0.31-1.33c-0.15-0.38-0.37-0.68-0.65-0.9
		c-0.29-0.22-0.67-0.32-1.17-0.32c-0.38,0-0.68,0.22-0.91,0.65c-0.23,0.43-0.41,0.98-0.54,1.66s-0.22,1.45-0.26,2.34
		c-0.04,0.89-0.06,1.79-0.06,2.7c0,0.96,0.01,1.91,0.03,2.84c0.02,0.94,0.03,1.74,0.03,2.41v2.59h4.78c0.3,0,0.48,0.13,0.54,0.4
		c0.06,0.26,0.08,0.64,0.08,1.12c0,0.43-0.03,0.78-0.08,1.04c-0.06,0.26-0.24,0.4-0.54,0.4h-4.78v28.87c0,1.01,0.24,1.73,0.71,2.16
		c0.47,0.43,1.51,0.77,3.1,1.01c0.15,0.05,0.28,0.12,0.4,0.22c0.11,0.1,0.17,0.29,0.17,0.58c0,0.48-0.21,0.72-0.63,0.72H1523.65z"/>
	<path class="st0" d="M1546.24,1035.67c-0.42,0-0.63-0.24-0.63-0.72c0-0.29,0.05-0.48,0.14-0.58c0.09-0.1,0.24-0.17,0.43-0.22
		c1.52-0.19,2.51-0.52,2.99-0.97c0.47-0.46,0.71-1.19,0.71-2.2v-28.87h-4.15c-0.3,0-0.48-0.14-0.54-0.43
		c-0.06-0.29-0.09-0.62-0.09-1.01c0-0.43,0.03-0.79,0.09-1.08c0.06-0.29,0.24-0.43,0.54-0.43h4.15v-2.74c0-5.04,0.9-8.92,2.7-11.63
		c1.8-2.71,4.54-4.07,8.22-4.07c1.29,0,2.45,0.19,3.47,0.58c1.02,0.38,1.89,0.9,2.59,1.55c0.7,0.65,1.24,1.39,1.62,2.23
		c0.38,0.84,0.57,1.74,0.57,2.7c0,1.68-0.25,2.87-0.74,3.56c-0.49,0.7-1.19,1.04-2.1,1.04c-1.44,0-2.39-0.43-2.84-1.3
		c-0.46-0.86-0.68-1.87-0.68-3.02c0-0.53-0.03-1.04-0.08-1.55s-0.16-0.95-0.31-1.33c-0.15-0.38-0.37-0.68-0.65-0.9
		c-0.29-0.22-0.67-0.32-1.17-0.32c-0.38,0-0.68,0.22-0.91,0.65c-0.23,0.43-0.41,0.98-0.54,1.66s-0.22,1.45-0.26,2.34
		c-0.04,0.89-0.06,1.79-0.06,2.7c0,0.96,0.01,1.91,0.03,2.84c0.02,0.94,0.03,1.74,0.03,2.41v2.59h4.78c0.3,0,0.48,0.13,0.54,0.4
		c0.06,0.26,0.08,0.64,0.08,1.12c0,0.43-0.03,0.78-0.08,1.04c-0.06,0.26-0.24,0.4-0.54,0.4h-4.78v28.87c0,1.01,0.24,1.73,0.71,2.16
		c0.47,0.43,1.51,0.77,3.1,1.01c0.15,0.05,0.28,0.12,0.4,0.22c0.11,0.1,0.17,0.29,0.17,0.58c0,0.48-0.21,0.72-0.63,0.72H1546.24z"/>
	<path class="st0" d="M1597.49,1027.39c0,0.24-0.02,0.41-0.06,0.5c-0.87,2.88-2.34,5.08-4.41,6.59c-2.07,1.51-4.71,2.27-7.94,2.27
		c-2.5,0-4.72-0.48-6.66-1.44c-1.93-0.96-3.57-2.29-4.89-4c-1.33-1.7-2.34-3.74-3.04-6.12c-0.7-2.38-1.05-4.98-1.05-7.81
		c0-2.98,0.39-5.65,1.17-8.03s1.84-4.4,3.19-6.08c1.35-1.68,2.94-2.96,4.78-3.85c1.84-0.89,3.84-1.33,6-1.33
		c2.12,0,4.04,0.47,5.75,1.4c1.71,0.94,3.17,2.18,4.38,3.74s2.15,3.36,2.82,5.4c0.66,2.04,1,4.19,1,6.44c0,0.82-0.04,1.38-0.11,1.69
		c-0.08,0.31-0.27,0.49-0.57,0.54l-19.63,1.94c0.23,2.4,0.65,4.44,1.28,6.12c0.63,1.68,1.37,3.04,2.22,4.07
		c0.85,1.03,1.79,1.79,2.82,2.27c1.02,0.48,2.07,0.72,3.13,0.72c1.55,0,3.09-0.48,4.61-1.44c1.52-0.96,2.77-2.42,3.75-4.39
		c0.11-0.29,0.3-0.43,0.57-0.43c0.23,0,0.44,0.1,0.63,0.29c0.19,0.24,0.28,0.53,0.28,0.86V1027.39z M1590.61,1013.56
		c0-1.39-0.16-2.78-0.48-4.18c-0.32-1.39-0.77-2.66-1.34-3.82c-0.57-1.15-1.24-2.09-2.02-2.81c-0.78-0.72-1.62-1.08-2.53-1.08
		c-1.93,0-3.47,0.96-4.61,2.88s-1.71,5.16-1.71,9.72c0,0.34,0,0.64,0,0.9c0,0.26,0.02,0.54,0.06,0.83l12.17-1.51
		c0.3-0.05,0.46-0.26,0.46-0.65V1013.56z"/>
	<path class="st0" d="M1603.29,1035.67c-0.42,0-0.63-0.24-0.63-0.72c0-0.29,0.05-0.48,0.14-0.58c0.09-0.1,0.24-0.17,0.43-0.22
		c1.17-0.14,2-0.46,2.47-0.94c0.47-0.48,0.71-1.22,0.71-2.23v-25.49c0-0.48-0.02-0.86-0.06-1.15c-0.04-0.29-0.16-0.5-0.37-0.65
		c-0.21-0.14-0.5-0.24-0.88-0.29c-0.38-0.05-0.91-0.07-1.59-0.07c-0.23,0-0.4-0.08-0.51-0.25c-0.11-0.17-0.17-0.37-0.17-0.61
		c0-0.24,0.04-0.44,0.11-0.61c0.08-0.17,0.21-0.28,0.4-0.32c1.86-0.43,3.75-0.95,5.69-1.55c1.93-0.6,3.77-1.21,5.52-1.84h0.17
		c0.3,0,0.46,0.31,0.46,0.94v4.03c1.33-1.68,2.76-2.94,4.29-3.78c1.54-0.84,3.08-1.26,4.64-1.26c0.87,0,1.67,0.19,2.39,0.58
		c0.72,0.38,1.34,0.9,1.85,1.55c0.51,0.65,0.91,1.39,1.2,2.23c0.28,0.84,0.43,1.72,0.43,2.63c0,3.26-1.06,4.9-3.19,4.9
		c-0.87,0-1.51-0.17-1.91-0.5c-0.4-0.33-0.68-0.74-0.85-1.22c-0.17-0.48-0.28-1.01-0.31-1.58c-0.04-0.58-0.14-1.1-0.31-1.58
		c-0.17-0.48-0.46-0.89-0.88-1.22c-0.42-0.33-1.08-0.5-1.99-0.5c-0.61,0-1.23,0.14-1.88,0.43c-0.65,0.29-1.22,0.7-1.74,1.22
		c-0.51,0.53-0.93,1.19-1.25,1.98c-0.32,0.79-0.48,1.69-0.48,2.7v21.31c0,1.01,0.24,1.75,0.71,2.23c0.47,0.48,1.3,0.79,2.47,0.94
		c0.19,0.05,0.33,0.12,0.43,0.22c0.09,0.1,0.14,0.29,0.14,0.58c0,0.48-0.21,0.72-0.63,0.72H1603.29z"/>
	<path class="st0" d="M1660.81,1027.39c0,0.24-0.02,0.41-0.06,0.5c-0.87,2.88-2.34,5.08-4.41,6.59c-2.07,1.51-4.71,2.27-7.94,2.27
		c-2.5,0-4.72-0.48-6.66-1.44c-1.93-0.96-3.57-2.29-4.89-4c-1.33-1.7-2.34-3.74-3.04-6.12c-0.7-2.38-1.05-4.98-1.05-7.81
		c0-2.98,0.39-5.65,1.17-8.03s1.84-4.4,3.19-6.08c1.35-1.68,2.94-2.96,4.78-3.85c1.84-0.89,3.84-1.33,6-1.33
		c2.12,0,4.04,0.47,5.75,1.4c1.71,0.94,3.17,2.18,4.38,3.74s2.15,3.36,2.82,5.4c0.66,2.04,1,4.19,1,6.44c0,0.82-0.04,1.38-0.11,1.69
		c-0.08,0.31-0.27,0.49-0.57,0.54l-19.63,1.94c0.23,2.4,0.65,4.44,1.28,6.12c0.63,1.68,1.37,3.04,2.22,4.07
		c0.85,1.03,1.79,1.79,2.82,2.27c1.02,0.48,2.07,0.72,3.13,0.72c1.55,0,3.09-0.48,4.61-1.44c1.52-0.96,2.77-2.42,3.75-4.39
		c0.11-0.29,0.3-0.43,0.57-0.43c0.23,0,0.44,0.1,0.63,0.29c0.19,0.24,0.28,0.53,0.28,0.86V1027.39z M1653.92,1013.56
		c0-1.39-0.16-2.78-0.48-4.18c-0.32-1.39-0.77-2.66-1.34-3.82c-0.57-1.15-1.24-2.09-2.02-2.81c-0.78-0.72-1.62-1.08-2.53-1.08
		c-1.93,0-3.47,0.96-4.61,2.88s-1.71,5.16-1.71,9.72c0,0.34,0,0.64,0,0.9c0,0.26,0.02,0.54,0.06,0.83l12.17-1.51
		c0.3-0.05,0.46-0.26,0.46-0.65V1013.56z"/>
	<path class="st0" d="M1686.29,1035.67c-0.42,0-0.63-0.24-0.63-0.72c0-0.29,0.05-0.48,0.14-0.58c0.09-0.1,0.24-0.17,0.43-0.22
		c1.1-0.14,1.83-0.46,2.19-0.94c0.36-0.48,0.54-1.22,0.54-2.23v-16.34c0-2.02-0.13-3.73-0.4-5.15c-0.27-1.42-0.63-2.57-1.08-3.46
		c-0.46-0.89-0.98-1.52-1.56-1.91c-0.59-0.38-1.21-0.58-1.85-0.58c-1.14,0-2.18,0.36-3.13,1.08c-0.95,0.72-1.76,1.63-2.45,2.74
		v23.62c0,1.06,0.18,1.81,0.54,2.27c0.36,0.46,1.09,0.76,2.19,0.9c0.19,0.05,0.34,0.12,0.46,0.22c0.11,0.1,0.17,0.29,0.17,0.58
		c0,0.48-0.21,0.72-0.63,0.72h-14.62c-0.42,0-0.63-0.24-0.63-0.72c0-0.29,0.05-0.48,0.14-0.58c0.09-0.1,0.24-0.17,0.43-0.22
		c1.17-0.14,2-0.46,2.47-0.94c0.47-0.48,0.71-1.22,0.71-2.23v-25.49c0-0.48-0.02-0.86-0.06-1.15c-0.04-0.29-0.15-0.5-0.34-0.65
		c-0.19-0.14-0.47-0.23-0.85-0.25c-0.38-0.02-0.93-0.04-1.65-0.04c-0.49,0-0.74-0.31-0.74-0.94c0-0.24,0.05-0.44,0.14-0.61
		c0.09-0.17,0.24-0.28,0.43-0.32c1.86-0.43,3.75-0.95,5.69-1.55c1.93-0.6,3.77-1.21,5.52-1.84h0.17c0.3,0,0.46,0.31,0.46,0.94v3.89
		c1.29-1.63,2.78-2.85,4.47-3.67c1.69-0.82,3.4-1.22,5.15-1.22c3.11,0,5.5,1.27,7.17,3.82s2.5,6.36,2.5,11.45v17.64
		c0,1.01,0.24,1.75,0.71,2.23c0.47,0.48,1.3,0.79,2.47,0.94c0.19,0.05,0.33,0.12,0.43,0.22c0.09,0.1,0.14,0.29,0.14,0.58
		c0,0.48-0.21,0.72-0.63,0.72H1686.29z"/>
	<path class="st0" d="M1708.54,1002.26h-3.64c-0.49,0-0.8-0.41-0.91-1.22c0-0.1-0.01-0.17-0.03-0.22c-0.02-0.05-0.03-0.1-0.03-0.14
		c0-0.62,0.38-1.01,1.14-1.15c0.99-0.14,2.01-0.56,3.07-1.26c1.06-0.7,2.07-1.58,3.02-2.66c0.95-1.08,1.8-2.3,2.56-3.67
		c0.76-1.37,1.33-2.79,1.71-4.28c0.08-0.38,0.22-0.62,0.43-0.72c0.21-0.1,0.46-0.14,0.77-0.14c0.46,0,0.68,0.43,0.68,1.3v11.09h6.2
		c0.3,0,0.49,0.12,0.57,0.36c0.08,0.24,0.11,0.62,0.11,1.15c0,0.53-0.04,0.92-0.11,1.19c-0.08,0.26-0.27,0.4-0.57,0.4h-6.14v24.19
		c0,2.02,0.34,3.52,1.02,4.5c0.68,0.98,1.57,1.48,2.67,1.48c0.72,0,1.42-0.16,2.1-0.47c0.68-0.31,1.25-0.71,1.71-1.19
		c0.19-0.24,0.36-0.36,0.51-0.36c0.11,0,0.25,0.1,0.4,0.29c0.11,0.19,0.17,0.38,0.17,0.58c0,0.29-0.13,0.6-0.4,0.94
		c-0.95,1.44-2.06,2.56-3.33,3.35c-1.27,0.79-2.74,1.19-4.41,1.19c-2.96,0-5.24-0.84-6.85-2.52c-1.61-1.68-2.42-4.29-2.42-7.85
		V1002.26z"/>
	<path class="st0" d="M1759.85,1035.45l-12.63-32.69c-0.3-0.77-0.67-1.27-1.11-1.51c-0.44-0.24-1.17-0.43-2.19-0.58
		c-0.34-0.05-0.51-0.29-0.51-0.72c0-0.53,0.19-0.79,0.57-0.79h15.3c0.46,0,0.68,0.22,0.68,0.65c0,0.24-0.06,0.42-0.17,0.54
		c-0.11,0.12-0.34,0.23-0.68,0.32c-0.87,0.24-1.47,0.47-1.79,0.68c-0.32,0.22-0.48,0.49-0.48,0.83c0,0.19,0.06,0.48,0.17,0.86
		l6.94,19.58l5.18-16.13c0.23-0.82,0.34-1.51,0.34-2.09c0-1.06-0.29-1.88-0.88-2.48c-0.59-0.6-1.38-1.02-2.36-1.26
		c-0.46-0.14-0.68-0.43-0.68-0.86c0-0.24,0.05-0.41,0.14-0.5c0.09-0.1,0.29-0.14,0.6-0.14h10.58c0.34,0,0.56,0.05,0.65,0.14
		c0.09,0.1,0.14,0.26,0.14,0.5c0,0.24-0.04,0.42-0.11,0.54c-0.08,0.12-0.27,0.23-0.57,0.32c-1.02,0.24-1.91,0.77-2.65,1.58
		c-0.74,0.82-1.41,2.16-2.02,4.03l-12,36.94c-0.83,2.54-1.81,4.38-2.93,5.51c-1.12,1.13-2.59,1.69-4.41,1.69
		c-0.95,0-1.83-0.18-2.65-0.54c-0.82-0.36-1.51-0.85-2.08-1.48c-0.57-0.63-1.01-1.34-1.34-2.16c-0.32-0.82-0.48-1.68-0.48-2.59
		c0-1.3,0.24-2.37,0.71-3.2c0.47-0.84,1.19-1.26,2.13-1.26c0.91,0,1.59,0.18,2.05,0.54c0.46,0.36,0.8,0.79,1.02,1.3
		s0.37,1.07,0.43,1.69c0.06,0.62,0.13,1.19,0.23,1.69s0.25,0.94,0.46,1.3c0.21,0.36,0.56,0.54,1.05,0.54c1.14,0,2.26-1.63,3.36-4.9
		L1759.85,1035.45z"/>
	<path class="st0" d="M1806.04,1027.39c0,0.24-0.02,0.41-0.06,0.5c-0.87,2.88-2.34,5.08-4.41,6.59c-2.07,1.51-4.71,2.27-7.94,2.27
		c-2.5,0-4.72-0.48-6.66-1.44c-1.93-0.96-3.57-2.29-4.89-4c-1.33-1.7-2.34-3.74-3.04-6.12c-0.7-2.38-1.05-4.98-1.05-7.81
		c0-2.98,0.39-5.65,1.17-8.03s1.84-4.4,3.19-6.08c1.35-1.68,2.94-2.96,4.78-3.85c1.84-0.89,3.84-1.33,6-1.33
		c2.12,0,4.04,0.47,5.75,1.4c1.71,0.94,3.17,2.18,4.38,3.74s2.15,3.36,2.82,5.4c0.66,2.04,1,4.19,1,6.44c0,0.82-0.04,1.38-0.11,1.69
		c-0.08,0.31-0.27,0.49-0.57,0.54l-19.63,1.94c0.23,2.4,0.65,4.44,1.28,6.12c0.63,1.68,1.37,3.04,2.22,4.07
		c0.85,1.03,1.79,1.79,2.82,2.27c1.02,0.48,2.07,0.72,3.13,0.72c1.55,0,3.09-0.48,4.61-1.44c1.52-0.96,2.77-2.42,3.75-4.39
		c0.11-0.29,0.3-0.43,0.57-0.43c0.23,0,0.44,0.1,0.63,0.29c0.19,0.24,0.28,0.53,0.28,0.86V1027.39z M1799.16,1013.56
		c0-1.39-0.16-2.78-0.48-4.18c-0.32-1.39-0.77-2.66-1.34-3.82c-0.57-1.15-1.24-2.09-2.02-2.81c-0.78-0.72-1.62-1.08-2.53-1.08
		c-1.93,0-3.47,0.96-4.61,2.88s-1.71,5.16-1.71,9.72c0,0.34,0,0.64,0,0.9c0,0.26,0.02,0.54,0.06,0.83l12.17-1.51
		c0.3-0.05,0.46-0.26,0.46-0.65V1013.56z"/>
	<path class="st0" d="M1838.81,1028.11c0,1.68,0.11,2.88,0.34,3.6s0.72,1.08,1.48,1.08c0.34,0,0.67-0.07,1-0.22
		c0.32-0.14,0.63-0.34,0.94-0.58c0.11-0.1,0.21-0.17,0.29-0.22c0.08-0.05,0.15-0.07,0.23-0.07c0.11,0,0.25,0.14,0.4,0.43
		c0.11,0.19,0.17,0.41,0.17,0.65c0,0.29-0.13,0.58-0.4,0.86c-0.83,0.96-1.85,1.72-3.04,2.27c-1.19,0.55-2.46,0.83-3.78,0.83
		c-1.82,0-3.17-0.44-4.04-1.33c-0.87-0.89-1.44-2.24-1.71-4.07c-0.99,1.73-2.42,3.06-4.3,4c-1.88,0.94-4.01,1.4-6.4,1.4
		c-2.5,0-4.48-0.86-5.92-2.59c-1.44-1.73-2.16-4.03-2.16-6.91c0-3.7,0.87-6.56,2.62-8.6c1.74-2.04,4.63-3.52,8.65-4.43
		c0.99-0.24,2.08-0.53,3.27-0.86c1.19-0.33,2.34-0.7,3.44-1.08c0-1.92-0.16-3.54-0.48-4.86c-0.32-1.32-0.76-2.4-1.31-3.24
		c-0.55-0.84-1.19-1.44-1.93-1.8c-0.74-0.36-1.53-0.54-2.36-0.54c-1.59,0-2.74,0.32-3.44,0.97c-0.7,0.65-1.05,1.45-1.05,2.41
		c0,0.43,0.04,0.78,0.11,1.04c0.08,0.26,0.16,0.53,0.26,0.79c0.09,0.26,0.18,0.55,0.26,0.86c0.08,0.31,0.11,0.73,0.11,1.26
		c0,1.25-0.31,2.18-0.94,2.81c-0.63,0.63-1.51,0.94-2.65,0.94c-1.1,0-1.97-0.43-2.62-1.3c-0.65-0.86-0.97-1.99-0.97-3.38
		c0-1.39,0.29-2.71,0.88-3.96s1.44-2.33,2.56-3.24c1.12-0.91,2.48-1.63,4.1-2.16c1.61-0.53,3.44-0.79,5.49-0.79
		c2.28,0,4.23,0.35,5.86,1.04c1.63,0.7,2.97,1.67,4.01,2.92c1.04,1.25,1.81,2.76,2.3,4.54c0.49,1.78,0.74,3.74,0.74,5.9V1028.11z
		 M1830.1,1016.01c-0.87,0.38-1.76,0.68-2.67,0.9s-1.8,0.47-2.67,0.76c-1.67,0.53-2.88,1.38-3.64,2.56c-0.76,1.18-1.14,2.84-1.14,5
		c0,1.68,0.45,2.98,1.34,3.89c0.89,0.91,2.02,1.37,3.38,1.37h0.17c1.02,0,2.03-0.3,3.01-0.9c0.99-0.6,1.73-1.38,2.22-2.34V1016.01z"
		/>
	<path class="st0" d="M1846.49,1035.67c-0.42,0-0.63-0.24-0.63-0.72c0-0.29,0.05-0.48,0.14-0.58c0.09-0.1,0.24-0.17,0.43-0.22
		c1.17-0.14,2-0.46,2.47-0.94c0.47-0.48,0.71-1.22,0.71-2.23v-25.49c0-0.48-0.02-0.86-0.06-1.15c-0.04-0.29-0.16-0.5-0.37-0.65
		c-0.21-0.14-0.5-0.24-0.88-0.29c-0.38-0.05-0.91-0.07-1.59-0.07c-0.23,0-0.4-0.08-0.51-0.25c-0.11-0.17-0.17-0.37-0.17-0.61
		c0-0.24,0.04-0.44,0.11-0.61c0.08-0.17,0.21-0.28,0.4-0.32c1.86-0.43,3.75-0.95,5.69-1.55c1.93-0.6,3.77-1.21,5.52-1.84h0.17
		c0.3,0,0.46,0.31,0.46,0.94v4.03c1.33-1.68,2.76-2.94,4.29-3.78c1.54-0.84,3.08-1.26,4.64-1.26c0.87,0,1.67,0.19,2.39,0.58
		c0.72,0.38,1.34,0.9,1.85,1.55c0.51,0.65,0.91,1.39,1.2,2.23c0.28,0.84,0.43,1.72,0.43,2.63c0,3.26-1.06,4.9-3.19,4.9
		c-0.87,0-1.51-0.17-1.91-0.5c-0.4-0.33-0.68-0.74-0.85-1.22c-0.17-0.48-0.28-1.01-0.31-1.58c-0.04-0.58-0.14-1.1-0.31-1.58
		c-0.17-0.48-0.46-0.89-0.88-1.22c-0.42-0.33-1.08-0.5-1.99-0.5c-0.61,0-1.23,0.14-1.88,0.43c-0.65,0.29-1.22,0.7-1.74,1.22
		c-0.51,0.53-0.93,1.19-1.25,1.98c-0.32,0.79-0.48,1.69-0.48,2.7v21.31c0,1.01,0.24,1.75,0.71,2.23c0.47,0.48,1.3,0.79,2.47,0.94
		c0.19,0.05,0.33,0.12,0.43,0.22c0.09,0.1,0.14,0.29,0.14,0.58c0,0.48-0.21,0.72-0.63,0.72H1846.49z"/>
	<path class="st0" d="M1884.32,1036.6c-0.72,0-1.4-0.19-2.05-0.58c-0.65-0.38-1.21-0.89-1.71-1.51c-0.49-0.62-0.88-1.34-1.17-2.16
		c-0.28-0.82-0.43-1.66-0.43-2.52c0-0.91,0.14-1.78,0.43-2.59c0.29-0.82,0.67-1.54,1.17-2.16c0.49-0.62,1.06-1.12,1.71-1.48
		c0.64-0.36,1.33-0.54,2.05-0.54s1.4,0.18,2.05,0.54c0.64,0.36,1.2,0.85,1.68,1.48c0.47,0.62,0.85,1.34,1.14,2.16
		c0.28,0.82,0.43,1.68,0.43,2.59c0,0.86-0.14,1.7-0.43,2.52s-0.66,1.54-1.14,2.16c-0.47,0.63-1.03,1.13-1.68,1.51
		C1885.72,1036.41,1885.04,1036.6,1884.32,1036.6z"/>
</g>
</svg>
