<?xml version="1.0" encoding="utf-8"?>
<!-- Generator: Adobe Illustrator 23.0.1, SVG Export Plug-In . SVG Version: 6.00 Build 0)  -->
<svg version="1.1" id="Layer_1" xmlns="http://www.w3.org/2000/svg" xmlns:xlink="http://www.w3.org/1999/xlink" x="0px" y="0px"
	 viewBox="0 0 400 400" style="enable-background:new 0 0 400 400;" xml:space="preserve">
<style type="text/css">
	.st0{fill:url(#SVGID_1_);}
	.st1{opacity:0.03;fill:#FFFFFF;stroke:#FFFFFF;stroke-width:2;stroke-miterlimit:10;}
	.st2{fill:#FFFFFF;stroke:#FFFFFF;stroke-width:2;stroke-miterlimit:10;}
	.st3{fill:#FFFFFF;stroke:#FFFFFF;stroke-width:5;stroke-miterlimit:10;}
</style>
<radialGradient id="SVGID_1_" cx="200.0001" cy="200" r="125" gradientTransform="matrix(0.6546 0 0 0.6127 69.0869 77.4674)" gradientUnits="userSpaceOnUse">
	<stop  offset="0" style="stop-color:#FFFFFF;stop-opacity:0"/>
	<stop  offset="0.8408" style="stop-color:#1414FF;stop-opacity:0"/>
	<stop  offset="0.8687" style="stop-color:#0000FF;stop-opacity:0.2"/>
	<stop  offset="0.9246" style="stop-color:#00FF51;stop-opacity:0.2"/>
	<stop  offset="0.9832" style="stop-color:#FF0000;stop-opacity:0.2"/>
</radialGradient>
<ellipse class="st0" cx="200" cy="200" rx="81.82" ry="76.58"/>
<polyline class="st1" points="200,200 394.54,396.37 200,200 5.46,3.63 200,200 3.63,394.54 200,200 396.37,5.46 200,200 
	226.28,214.7 200,200 173.72,185.3 200,200 185.3,226.28 200,200 214.7,173.72 200,200 281.45,221.52 200,200 118.55,178.48 
	200,200 178.48,281.45 200,200 221.52,118.55 200,200 251.91,204.5 200,200 148.09,195.5 200,200 195.5,251.91 200,200 
	204.5,148.09 200,200 210.99,269.99 200,200 189.01,130.01 200,200 130.01,210.99 200,200 269.99,189.01 200,200 284.19,339.33 
	200,200 115.81,60.67 200,200 60.67,284.19 200,200 339.33,115.81 200,200 202.37,294.9 200,200 197.63,105.1 200,200 105.1,202.37 
	200,200 294.9,197.63 200,200 251.91,298.75 200,200 148.09,101.25 200,200 101.25,251.91 200,200 298.75,148.09 200,200 
	224.26,389.4 200,200 175.74,10.6 200,200 10.6,224.26 200,200 389.4,175.74 200,200 394.13,217.32 200,200 5.87,182.68 200,200 
	182.68,394.13 200,200 217.32,5.87 200,200 353.02,343.22 200,200 46.98,56.78 200,200 56.78,353.02 200,200 343.22,46.98 200,200 
	239.36,399.26 200,200 160.64,0.74 200,200 0.74,239.36 200,200 399.26,160.64 200,200 300.58,272.4 200,200 99.42,127.6 200,200 
	127.6,300.58 200,200 272.4,99.42 200,200 378.44,408.24 200,200 21.56,-8.24 200,200 -8.24,378.44 200,200 408.24,21.56 200,200 
	227.9,207.53 200,200 172.1,192.47 200,200 192.47,227.9 200,200 207.53,172.1 "/>
<circle class="st2" cx="200" cy="200" r="10.78"/>
<line class="st3" x1="200" y1="29.44" x2="200" y2="374.78"/>
<line class="st3" x1="372.67" y1="200" x2="27.33" y2="200"/>
</svg>
